<mxfile host="app.diagrams.net" modified="2023-06-04T08:29:08.876Z" agent="Mozilla/5.0 (Macintosh; Intel Mac OS X 10_15_7) AppleWebKit/605.1.15 (KHTML, like Gecko) Version/16.4 Safari/605.1.15" etag="zwK2BuwHLZ5dVtsataMR" version="21.3.7" type="github">
  <diagram name="Page-1" id="Vz2Wcvp0gmtx6I2Lt9n_">
    <mxGraphModel dx="1735" dy="1916" grid="1" gridSize="10" guides="1" tooltips="1" connect="1" arrows="1" fold="1" page="1" pageScale="1" pageWidth="1169" pageHeight="827" math="0" shadow="0">
      <root>
        <mxCell id="0" />
        <mxCell id="1" parent="0" />
        <mxCell id="VNQSytcOBWokNpSVMfIY-1" value="User" style="swimlane;fontStyle=1;align=center;verticalAlign=top;childLayout=stackLayout;horizontal=1;startSize=26;horizontalStack=0;resizeParent=1;resizeParentMax=0;resizeLast=0;collapsible=1;marginBottom=0;whiteSpace=wrap;html=1;fillColor=#d5e8d4;strokeColor=#82b366;" parent="1" vertex="1">
          <mxGeometry x="135" y="80" width="480" height="210" as="geometry" />
        </mxCell>
        <mxCell id="VNQSytcOBWokNpSVMfIY-2" value="# id: String&lt;br&gt;# password: String" style="text;strokeColor=none;fillColor=none;align=left;verticalAlign=top;spacingLeft=4;spacingRight=4;overflow=hidden;rotatable=0;points=[[0,0.5],[1,0.5]];portConstraint=eastwest;whiteSpace=wrap;html=1;" parent="VNQSytcOBWokNpSVMfIY-1" vertex="1">
          <mxGeometry y="26" width="480" height="34" as="geometry" />
        </mxCell>
        <mxCell id="VNQSytcOBWokNpSVMfIY-3" value="" style="line;strokeWidth=1;fillColor=none;align=left;verticalAlign=middle;spacingTop=-1;spacingLeft=3;spacingRight=3;rotatable=0;labelPosition=right;points=[];portConstraint=eastwest;strokeColor=inherit;" parent="VNQSytcOBWokNpSVMfIY-1" vertex="1">
          <mxGeometry y="60" width="480" height="8" as="geometry" />
        </mxCell>
        <mxCell id="VNQSytcOBWokNpSVMfIY-4" value="+ signUp(String id, String pwd)&lt;br&gt;+ signIn(String id, String pwd): User&lt;br&gt;+ signOut()&lt;br&gt;+ getPerfAlgo()&lt;br&gt;+ produceStats()&lt;br&gt;+ produceStatsPeriod(Date day1, Date day2, Coordinates coord, double radius): double&lt;br&gt;+ produceStatsMoment(Date day, Coordinates coord, double radius): double&lt;br&gt;+ getId(): String&lt;br&gt;+ computeMeanATMOIdx(Vector&amp;lt;Measure&amp;gt; listMeasures): int" style="text;strokeColor=none;fillColor=none;align=left;verticalAlign=top;spacingLeft=4;spacingRight=4;overflow=hidden;rotatable=0;points=[[0,0.5],[1,0.5]];portConstraint=eastwest;whiteSpace=wrap;html=1;" parent="VNQSytcOBWokNpSVMfIY-1" vertex="1">
          <mxGeometry y="68" width="480" height="142" as="geometry" />
        </mxCell>
        <mxCell id="VNQSytcOBWokNpSVMfIY-5" style="edgeStyle=orthogonalEdgeStyle;rounded=0;orthogonalLoop=1;jettySize=auto;html=1;exitX=0.5;exitY=0;exitDx=0;exitDy=0;endArrow=block;endFill=0;" parent="1" source="VNQSytcOBWokNpSVMfIY-6" edge="1">
          <mxGeometry relative="1" as="geometry">
            <mxPoint x="375.0588235294117" y="293" as="targetPoint" />
          </mxGeometry>
        </mxCell>
        <mxCell id="VNQSytcOBWokNpSVMfIY-6" value="Admin" style="swimlane;fontStyle=1;align=center;verticalAlign=top;childLayout=stackLayout;horizontal=1;startSize=26;horizontalStack=0;resizeParent=1;resizeParentMax=0;resizeLast=0;collapsible=1;marginBottom=0;whiteSpace=wrap;html=1;fillColor=#d5e8d4;strokeColor=#82b366;" parent="1" vertex="1">
          <mxGeometry x="295" y="343" width="160" height="70" as="geometry" />
        </mxCell>
        <mxCell id="VNQSytcOBWokNpSVMfIY-7" value="" style="line;strokeWidth=1;fillColor=none;align=left;verticalAlign=middle;spacingTop=-1;spacingLeft=3;spacingRight=3;rotatable=0;labelPosition=right;points=[];portConstraint=eastwest;strokeColor=inherit;" parent="VNQSytcOBWokNpSVMfIY-6" vertex="1">
          <mxGeometry y="26" width="160" height="8" as="geometry" />
        </mxCell>
        <mxCell id="VNQSytcOBWokNpSVMfIY-8" value="+ manageUserRights(String userId)" style="text;strokeColor=none;fillColor=none;align=left;verticalAlign=top;spacingLeft=4;spacingRight=4;overflow=hidden;rotatable=0;points=[[0,0.5],[1,0.5]];portConstraint=eastwest;whiteSpace=wrap;html=1;" parent="VNQSytcOBWokNpSVMfIY-6" vertex="1">
          <mxGeometry y="34" width="160" height="36" as="geometry" />
        </mxCell>
        <mxCell id="VNQSytcOBWokNpSVMfIY-9" style="edgeStyle=orthogonalEdgeStyle;rounded=0;orthogonalLoop=1;jettySize=auto;html=1;exitX=0.5;exitY=0;exitDx=0;exitDy=0;endArrow=block;endFill=0;targetPerimeterSpacing=0;strokeWidth=1;" parent="1" source="VNQSytcOBWokNpSVMfIY-15" edge="1">
          <mxGeometry relative="1" as="geometry">
            <mxPoint x="300" y="293" as="targetPoint" />
            <Array as="points">
              <mxPoint x="226" y="320" />
              <mxPoint x="300" y="320" />
            </Array>
          </mxGeometry>
        </mxCell>
        <mxCell id="VNQSytcOBWokNpSVMfIY-10" value="PrivIndiv" style="swimlane;fontStyle=1;align=center;verticalAlign=top;childLayout=stackLayout;horizontal=1;startSize=26;horizontalStack=0;resizeParent=1;resizeParentMax=0;resizeLast=0;collapsible=1;marginBottom=0;whiteSpace=wrap;html=1;fillColor=#d5e8d4;strokeColor=#82b366;" parent="1" vertex="1">
          <mxGeometry x="456" y="430" width="210" height="90" as="geometry" />
        </mxCell>
        <mxCell id="VNQSytcOBWokNpSVMfIY-11" value="- providedSensors: Vector&amp;lt;Sensor&amp;gt;&lt;br&gt;- points: int" style="text;strokeColor=none;fillColor=none;align=left;verticalAlign=top;spacingLeft=4;spacingRight=4;overflow=hidden;rotatable=0;points=[[0,0.5],[1,0.5]];portConstraint=eastwest;whiteSpace=wrap;html=1;" parent="VNQSytcOBWokNpSVMfIY-10" vertex="1">
          <mxGeometry y="26" width="210" height="34" as="geometry" />
        </mxCell>
        <mxCell id="VNQSytcOBWokNpSVMfIY-12" value="" style="line;strokeWidth=1;fillColor=none;align=left;verticalAlign=middle;spacingTop=-1;spacingLeft=3;spacingRight=3;rotatable=0;labelPosition=right;points=[];portConstraint=eastwest;strokeColor=inherit;" parent="VNQSytcOBWokNpSVMfIY-10" vertex="1">
          <mxGeometry y="60" width="210" height="8" as="geometry" />
        </mxCell>
        <mxCell id="VNQSytcOBWokNpSVMfIY-13" value="+ addOnePoint()" style="text;strokeColor=none;fillColor=none;align=left;verticalAlign=top;spacingLeft=4;spacingRight=4;overflow=hidden;rotatable=0;points=[[0,0.5],[1,0.5]];portConstraint=eastwest;whiteSpace=wrap;html=1;" parent="VNQSytcOBWokNpSVMfIY-10" vertex="1">
          <mxGeometry y="68" width="210" height="22" as="geometry" />
        </mxCell>
        <mxCell id="VNQSytcOBWokNpSVMfIY-14" style="edgeStyle=orthogonalEdgeStyle;rounded=0;orthogonalLoop=1;jettySize=auto;html=1;endArrow=block;endFill=0;exitX=0.5;exitY=0;exitDx=0;exitDy=0;" parent="1" source="VNQSytcOBWokNpSVMfIY-10" edge="1">
          <mxGeometry relative="1" as="geometry">
            <mxPoint x="440" y="293" as="targetPoint" />
            <Array as="points">
              <mxPoint x="561" y="364" />
              <mxPoint x="560" y="320" />
              <mxPoint x="440" y="320" />
            </Array>
          </mxGeometry>
        </mxCell>
        <mxCell id="VNQSytcOBWokNpSVMfIY-15" value="SuperUser" style="swimlane;fontStyle=1;align=center;verticalAlign=top;childLayout=stackLayout;horizontal=1;startSize=26;horizontalStack=0;resizeParent=1;resizeParentMax=0;resizeLast=0;collapsible=1;marginBottom=0;whiteSpace=wrap;html=1;fillColor=#d5e8d4;strokeColor=#82b366;" parent="1" vertex="1">
          <mxGeometry x="116" y="430" width="220" height="100" as="geometry" />
        </mxCell>
        <mxCell id="VNQSytcOBWokNpSVMfIY-16" value="" style="line;strokeWidth=1;fillColor=none;align=left;verticalAlign=middle;spacingTop=-1;spacingLeft=3;spacingRight=3;rotatable=0;labelPosition=right;points=[];portConstraint=eastwest;strokeColor=inherit;" parent="VNQSytcOBWokNpSVMfIY-15" vertex="1">
          <mxGeometry y="26" width="220" height="8" as="geometry" />
        </mxCell>
        <mxCell id="VNQSytcOBWokNpSVMfIY-17" value="+ obsImpactAC()&lt;br&gt;+ obsImpactRadius(String id): double&lt;br&gt;+ obsImpactLvlImprov(String id, double radius): List&amp;lt;double&amp;gt;" style="text;strokeColor=none;fillColor=none;align=left;verticalAlign=top;spacingLeft=4;spacingRight=4;overflow=hidden;rotatable=0;points=[[0,0.5],[1,0.5]];portConstraint=eastwest;whiteSpace=wrap;html=1;" parent="VNQSytcOBWokNpSVMfIY-15" vertex="1">
          <mxGeometry y="34" width="220" height="66" as="geometry" />
        </mxCell>
        <mxCell id="VNQSytcOBWokNpSVMfIY-18" style="edgeStyle=orthogonalEdgeStyle;rounded=0;orthogonalLoop=1;jettySize=auto;html=1;endArrow=block;endFill=0;exitX=0.5;exitY=0;exitDx=0;exitDy=0;" parent="1" source="VNQSytcOBWokNpSVMfIY-23" edge="1">
          <mxGeometry relative="1" as="geometry">
            <mxPoint x="205" y="537" as="targetPoint" />
          </mxGeometry>
        </mxCell>
        <mxCell id="VNQSytcOBWokNpSVMfIY-22" style="edgeStyle=orthogonalEdgeStyle;rounded=0;orthogonalLoop=1;jettySize=auto;html=1;endArrow=block;endFill=0;" parent="1" source="VNQSytcOBWokNpSVMfIY-19" edge="1">
          <mxGeometry relative="1" as="geometry">
            <mxPoint x="276" y="536" as="targetPoint" />
            <Array as="points">
              <mxPoint x="346" y="563" />
              <mxPoint x="276" y="563" />
            </Array>
          </mxGeometry>
        </mxCell>
        <mxCell id="VNQSytcOBWokNpSVMfIY-23" value="Provider" style="swimlane;fontStyle=1;align=center;verticalAlign=top;childLayout=stackLayout;horizontal=1;startSize=26;horizontalStack=0;resizeParent=1;resizeParentMax=0;resizeLast=0;collapsible=1;marginBottom=0;whiteSpace=wrap;html=1;fillColor=#d5e8d4;strokeColor=#82b366;" parent="1" vertex="1">
          <mxGeometry x="10" y="594" width="200" height="58" as="geometry" />
        </mxCell>
        <mxCell id="VNQSytcOBWokNpSVMfIY-24" value="- providedAC: Vector&amp;lt;AirCleaner&amp;gt;" style="text;strokeColor=none;fillColor=none;align=left;verticalAlign=top;spacingLeft=4;spacingRight=4;overflow=hidden;rotatable=0;points=[[0,0.5],[1,0.5]];portConstraint=eastwest;whiteSpace=wrap;html=1;" parent="VNQSytcOBWokNpSVMfIY-23" vertex="1">
          <mxGeometry y="26" width="200" height="24" as="geometry" />
        </mxCell>
        <mxCell id="VNQSytcOBWokNpSVMfIY-25" value="" style="line;strokeWidth=1;fillColor=none;align=left;verticalAlign=middle;spacingTop=-1;spacingLeft=3;spacingRight=3;rotatable=0;labelPosition=right;points=[];portConstraint=eastwest;strokeColor=inherit;" parent="VNQSytcOBWokNpSVMfIY-23" vertex="1">
          <mxGeometry y="50" width="200" height="8" as="geometry" />
        </mxCell>
        <mxCell id="VNQSytcOBWokNpSVMfIY-27" value="Coordinates" style="swimlane;fontStyle=1;align=center;verticalAlign=top;childLayout=stackLayout;horizontal=1;startSize=26;horizontalStack=0;resizeParent=1;resizeParentMax=0;resizeLast=0;collapsible=1;marginBottom=0;whiteSpace=wrap;html=1;fillColor=#d5e8d4;strokeColor=#82b366;" parent="1" vertex="1">
          <mxGeometry x="540" y="751" width="120" height="68" as="geometry" />
        </mxCell>
        <mxCell id="VNQSytcOBWokNpSVMfIY-28" value="- longitude: double&lt;br&gt;- latitude: double" style="text;strokeColor=none;fillColor=none;align=left;verticalAlign=top;spacingLeft=4;spacingRight=4;overflow=hidden;rotatable=0;points=[[0,0.5],[1,0.5]];portConstraint=eastwest;whiteSpace=wrap;html=1;" parent="VNQSytcOBWokNpSVMfIY-27" vertex="1">
          <mxGeometry y="26" width="120" height="34" as="geometry" />
        </mxCell>
        <mxCell id="VNQSytcOBWokNpSVMfIY-29" value="" style="line;strokeWidth=1;fillColor=none;align=left;verticalAlign=middle;spacingTop=-1;spacingLeft=3;spacingRight=3;rotatable=0;labelPosition=right;points=[];portConstraint=eastwest;strokeColor=inherit;" parent="VNQSytcOBWokNpSVMfIY-27" vertex="1">
          <mxGeometry y="60" width="120" height="8" as="geometry" />
        </mxCell>
        <mxCell id="VNQSytcOBWokNpSVMfIY-31" value="IHM" style="swimlane;fontStyle=1;align=center;verticalAlign=top;childLayout=stackLayout;horizontal=1;startSize=26;horizontalStack=0;resizeParent=1;resizeParentMax=0;resizeLast=0;collapsible=1;marginBottom=0;whiteSpace=wrap;html=1;fillColor=#d5e8d4;strokeColor=#82b366;" parent="1" vertex="1">
          <mxGeometry x="660" y="10" width="90" height="60" as="geometry" />
        </mxCell>
        <mxCell id="VNQSytcOBWokNpSVMfIY-32" value="" style="line;strokeWidth=1;fillColor=none;align=left;verticalAlign=middle;spacingTop=-1;spacingLeft=3;spacingRight=3;rotatable=0;labelPosition=right;points=[];portConstraint=eastwest;strokeColor=inherit;" parent="VNQSytcOBWokNpSVMfIY-31" vertex="1">
          <mxGeometry y="26" width="90" height="8" as="geometry" />
        </mxCell>
        <mxCell id="VNQSytcOBWokNpSVMfIY-33" value="+ main()" style="text;strokeColor=none;fillColor=none;align=left;verticalAlign=top;spacingLeft=4;spacingRight=4;overflow=hidden;rotatable=0;points=[[0,0.5],[1,0.5]];portConstraint=eastwest;whiteSpace=wrap;html=1;" parent="VNQSytcOBWokNpSVMfIY-31" vertex="1">
          <mxGeometry y="34" width="90" height="26" as="geometry" />
        </mxCell>
        <mxCell id="VNQSytcOBWokNpSVMfIY-34" value="Sensor" style="swimlane;fontStyle=1;align=center;verticalAlign=top;childLayout=stackLayout;horizontal=1;startSize=26;horizontalStack=0;resizeParent=1;resizeParentMax=0;resizeLast=0;collapsible=1;marginBottom=0;whiteSpace=wrap;html=1;fillColor=#d5e8d4;strokeColor=#82b366;" parent="1" vertex="1">
          <mxGeometry x="730" y="709" width="160" height="110" as="geometry" />
        </mxCell>
        <mxCell id="VNQSytcOBWokNpSVMfIY-35" value="# id: String&lt;br&gt;# coord: Coordinates&lt;br&gt;# reliable: boolean" style="text;strokeColor=none;fillColor=none;align=left;verticalAlign=top;spacingLeft=4;spacingRight=4;overflow=hidden;rotatable=0;points=[[0,0.5],[1,0.5]];portConstraint=eastwest;whiteSpace=wrap;html=1;" parent="VNQSytcOBWokNpSVMfIY-34" vertex="1">
          <mxGeometry y="26" width="160" height="54" as="geometry" />
        </mxCell>
        <mxCell id="VNQSytcOBWokNpSVMfIY-36" value="" style="line;strokeWidth=1;fillColor=none;align=left;verticalAlign=middle;spacingTop=-1;spacingLeft=3;spacingRight=3;rotatable=0;labelPosition=right;points=[];portConstraint=eastwest;strokeColor=inherit;" parent="VNQSytcOBWokNpSVMfIY-34" vertex="1">
          <mxGeometry y="80" width="160" height="8" as="geometry" />
        </mxCell>
        <mxCell id="VNQSytcOBWokNpSVMfIY-37" value="+ setReliable(boolean rel)" style="text;strokeColor=none;fillColor=none;align=left;verticalAlign=top;spacingLeft=4;spacingRight=4;overflow=hidden;rotatable=0;points=[[0,0.5],[1,0.5]];portConstraint=eastwest;whiteSpace=wrap;html=1;" parent="VNQSytcOBWokNpSVMfIY-34" vertex="1">
          <mxGeometry y="88" width="160" height="22" as="geometry" />
        </mxCell>
        <mxCell id="VNQSytcOBWokNpSVMfIY-38" value="AirCleaner" style="swimlane;fontStyle=1;align=center;verticalAlign=top;childLayout=stackLayout;horizontal=1;startSize=26;horizontalStack=0;resizeParent=1;resizeParentMax=0;resizeLast=0;collapsible=1;marginBottom=0;whiteSpace=wrap;html=1;fillColor=#d5e8d4;strokeColor=#82b366;" parent="1" vertex="1">
          <mxGeometry x="520" y="613" width="160" height="98" as="geometry" />
        </mxCell>
        <mxCell id="VNQSytcOBWokNpSVMfIY-39" value="- id: String&lt;br&gt;+ coord: Coordinates&lt;br&gt;- DateStart: Date&lt;br&gt;- DateStop: Date" style="text;strokeColor=none;fillColor=none;align=left;verticalAlign=top;spacingLeft=4;spacingRight=4;overflow=hidden;rotatable=0;points=[[0,0.5],[1,0.5]];portConstraint=eastwest;whiteSpace=wrap;html=1;" parent="VNQSytcOBWokNpSVMfIY-38" vertex="1">
          <mxGeometry y="26" width="160" height="64" as="geometry" />
        </mxCell>
        <mxCell id="VNQSytcOBWokNpSVMfIY-40" value="" style="line;strokeWidth=1;fillColor=none;align=left;verticalAlign=middle;spacingTop=-1;spacingLeft=3;spacingRight=3;rotatable=0;labelPosition=right;points=[];portConstraint=eastwest;strokeColor=inherit;" parent="VNQSytcOBWokNpSVMfIY-38" vertex="1">
          <mxGeometry y="90" width="160" height="8" as="geometry" />
        </mxCell>
        <mxCell id="VNQSytcOBWokNpSVMfIY-42" value="Measure" style="swimlane;fontStyle=1;align=center;verticalAlign=top;childLayout=stackLayout;horizontal=1;startSize=26;horizontalStack=0;resizeParent=1;resizeParentMax=0;resizeLast=0;collapsible=1;marginBottom=0;whiteSpace=wrap;html=1;fillColor=#d5e8d4;strokeColor=#82b366;" parent="1" vertex="1">
          <mxGeometry x="860" y="580" width="160" height="98" as="geometry" />
        </mxCell>
        <mxCell id="VNQSytcOBWokNpSVMfIY-43" value="# sensorId: String&lt;br&gt;# dateMeas: Date&lt;br&gt;# attributeType: String&lt;br&gt;# value: double" style="text;strokeColor=none;fillColor=none;align=left;verticalAlign=top;spacingLeft=4;spacingRight=4;overflow=hidden;rotatable=0;points=[[0,0.5],[1,0.5]];portConstraint=eastwest;whiteSpace=wrap;html=1;" parent="VNQSytcOBWokNpSVMfIY-42" vertex="1">
          <mxGeometry y="26" width="160" height="64" as="geometry" />
        </mxCell>
        <mxCell id="VNQSytcOBWokNpSVMfIY-44" value="" style="line;strokeWidth=1;fillColor=none;align=left;verticalAlign=middle;spacingTop=-1;spacingLeft=3;spacingRight=3;rotatable=0;labelPosition=right;points=[];portConstraint=eastwest;strokeColor=inherit;" parent="VNQSytcOBWokNpSVMfIY-42" vertex="1">
          <mxGeometry y="90" width="160" height="8" as="geometry" />
        </mxCell>
        <mxCell id="VNQSytcOBWokNpSVMfIY-46" value="Attribute" style="swimlane;fontStyle=1;align=center;verticalAlign=top;childLayout=stackLayout;horizontal=1;startSize=26;horizontalStack=0;resizeParent=1;resizeParentMax=0;resizeLast=0;collapsible=1;marginBottom=0;whiteSpace=wrap;html=1;fillColor=#d5e8d4;strokeColor=#82b366;" parent="1" vertex="1">
          <mxGeometry x="985" y="720" width="160" height="88" as="geometry" />
        </mxCell>
        <mxCell id="VNQSytcOBWokNpSVMfIY-47" value="# type: String&lt;br&gt;# unit: String&lt;br&gt;# description: String" style="text;strokeColor=none;fillColor=none;align=left;verticalAlign=top;spacingLeft=4;spacingRight=4;overflow=hidden;rotatable=0;points=[[0,0.5],[1,0.5]];portConstraint=eastwest;whiteSpace=wrap;html=1;" parent="VNQSytcOBWokNpSVMfIY-46" vertex="1">
          <mxGeometry y="26" width="160" height="54" as="geometry" />
        </mxCell>
        <mxCell id="VNQSytcOBWokNpSVMfIY-48" value="" style="line;strokeWidth=1;fillColor=none;align=left;verticalAlign=middle;spacingTop=-1;spacingLeft=3;spacingRight=3;rotatable=0;labelPosition=right;points=[];portConstraint=eastwest;strokeColor=inherit;" parent="VNQSytcOBWokNpSVMfIY-46" vertex="1">
          <mxGeometry y="80" width="160" height="8" as="geometry" />
        </mxCell>
        <mxCell id="VNQSytcOBWokNpSVMfIY-53" value="Use" style="endArrow=open;endSize=12;dashed=1;html=1;rounded=0;exitX=0;exitY=0.5;exitDx=0;exitDy=0;entryX=0.5;entryY=0;entryDx=0;entryDy=0;" parent="1" source="VNQSytcOBWokNpSVMfIY-33" target="VNQSytcOBWokNpSVMfIY-1" edge="1">
          <mxGeometry width="160" relative="1" as="geometry">
            <mxPoint x="730" y="-40" as="sourcePoint" />
            <mxPoint x="890" y="-40" as="targetPoint" />
            <Array as="points">
              <mxPoint x="375" y="57" />
            </Array>
          </mxGeometry>
        </mxCell>
        <mxCell id="VNQSytcOBWokNpSVMfIY-54" value="Use" style="endArrow=open;endSize=12;dashed=1;html=1;rounded=0;exitX=0.99;exitY=0.121;exitDx=0;exitDy=0;entryX=0.75;entryY=0;entryDx=0;entryDy=0;exitPerimeter=0;" parent="1" source="VNQSytcOBWokNpSVMfIY-33" target="VNQSytcOBWokNpSVMfIY-72" edge="1">
          <mxGeometry width="160" relative="1" as="geometry">
            <mxPoint x="830" y="-80" as="sourcePoint" />
            <mxPoint x="975" y="60" as="targetPoint" />
            <Array as="points">
              <mxPoint x="1070" y="50" />
            </Array>
          </mxGeometry>
        </mxCell>
        <mxCell id="VNQSytcOBWokNpSVMfIY-55" value="Use" style="endArrow=open;endSize=12;dashed=1;html=1;rounded=0;exitX=0;exitY=0.5;exitDx=0;exitDy=0;entryX=0.5;entryY=0;entryDx=0;entryDy=0;" parent="1" source="VNQSytcOBWokNpSVMfIY-43" target="VNQSytcOBWokNpSVMfIY-34" edge="1">
          <mxGeometry width="160" relative="1" as="geometry">
            <mxPoint x="615" y="590" as="sourcePoint" />
            <mxPoint x="775" y="590" as="targetPoint" />
          </mxGeometry>
        </mxCell>
        <mxCell id="VNQSytcOBWokNpSVMfIY-56" value="Use" style="endArrow=open;endSize=12;dashed=1;html=1;rounded=0;exitX=1;exitY=0.5;exitDx=0;exitDy=0;entryX=0.5;entryY=0;entryDx=0;entryDy=0;" parent="1" source="VNQSytcOBWokNpSVMfIY-43" target="VNQSytcOBWokNpSVMfIY-46" edge="1">
          <mxGeometry width="160" relative="1" as="geometry">
            <mxPoint x="1135" y="580" as="sourcePoint" />
            <mxPoint x="1295" y="580" as="targetPoint" />
          </mxGeometry>
        </mxCell>
        <mxCell id="VNQSytcOBWokNpSVMfIY-19" value="MemberGov" style="swimlane;fontStyle=1;align=center;verticalAlign=top;childLayout=stackLayout;horizontal=1;startSize=26;horizontalStack=0;resizeParent=1;resizeParentMax=0;resizeLast=0;collapsible=1;marginBottom=0;whiteSpace=wrap;html=1;fillColor=#d5e8d4;strokeColor=#82b366;" parent="1" vertex="1">
          <mxGeometry x="236" y="577" width="220" height="80" as="geometry" />
        </mxCell>
        <mxCell id="VNQSytcOBWokNpSVMfIY-20" value="" style="line;strokeWidth=1;fillColor=none;align=left;verticalAlign=middle;spacingTop=-1;spacingLeft=3;spacingRight=3;rotatable=0;labelPosition=right;points=[];portConstraint=eastwest;strokeColor=inherit;" parent="VNQSytcOBWokNpSVMfIY-19" vertex="1">
          <mxGeometry y="26" width="220" height="8" as="geometry" />
        </mxCell>
        <mxCell id="VNQSytcOBWokNpSVMfIY-21" value="+ analysePIndSensor()&lt;br&gt;+ analysePIndSensor(String sensorId)" style="text;strokeColor=none;fillColor=none;align=left;verticalAlign=top;spacingLeft=4;spacingRight=4;overflow=hidden;rotatable=0;points=[[0,0.5],[1,0.5]];portConstraint=eastwest;whiteSpace=wrap;html=1;" parent="VNQSytcOBWokNpSVMfIY-19" vertex="1">
          <mxGeometry y="34" width="220" height="46" as="geometry" />
        </mxCell>
        <mxCell id="VNQSytcOBWokNpSVMfIY-61" value="" style="endArrow=block;endFill=1;html=1;edgeStyle=orthogonalEdgeStyle;align=left;verticalAlign=top;rounded=0;exitX=0.5;exitY=1;exitDx=0;exitDy=0;entryX=0.5;entryY=0;entryDx=0;entryDy=0;" parent="1" source="VNQSytcOBWokNpSVMfIY-38" target="VNQSytcOBWokNpSVMfIY-27" edge="1">
          <mxGeometry x="-1" relative="1" as="geometry">
            <mxPoint x="895" y="519" as="sourcePoint" />
            <mxPoint x="610" y="623" as="targetPoint" />
          </mxGeometry>
        </mxCell>
        <mxCell id="VNQSytcOBWokNpSVMfIY-62" value="" style="endArrow=block;endFill=1;html=1;edgeStyle=orthogonalEdgeStyle;align=left;verticalAlign=top;rounded=0;exitX=0;exitY=0.5;exitDx=0;exitDy=0;" parent="1" source="VNQSytcOBWokNpSVMfIY-35" edge="1">
          <mxGeometry x="-1" relative="1" as="geometry">
            <mxPoint x="715" y="529" as="sourcePoint" />
            <mxPoint x="660" y="762" as="targetPoint" />
          </mxGeometry>
        </mxCell>
        <mxCell id="VNQSytcOBWokNpSVMfIY-72" value="DataManageMeasure" style="swimlane;fontStyle=1;align=center;verticalAlign=top;childLayout=stackLayout;horizontal=1;startSize=26;horizontalStack=0;resizeParent=1;resizeParentMax=0;resizeLast=0;collapsible=1;marginBottom=0;whiteSpace=wrap;html=1;fillColor=#d5e8d4;strokeColor=#82b366;" parent="1" vertex="1">
          <mxGeometry x="835" y="260" width="310" height="190" as="geometry" />
        </mxCell>
        <mxCell id="VNQSytcOBWokNpSVMfIY-73" value="- sensorsProvByPrivIndiv: Vector&amp;lt;Sensor&amp;gt;&lt;br&gt;- allSensors: Vector&amp;lt;Sensor&amp;gt;&lt;br&gt;- airCleanerList: Vector&amp;lt;AirCleaner&amp;gt;" style="text;strokeColor=none;fillColor=none;align=left;verticalAlign=top;spacingLeft=4;spacingRight=4;overflow=hidden;rotatable=0;points=[[0,0.5],[1,0.5]];portConstraint=eastwest;whiteSpace=wrap;html=1;" parent="VNQSytcOBWokNpSVMfIY-72" vertex="1">
          <mxGeometry y="26" width="310" height="54" as="geometry" />
        </mxCell>
        <mxCell id="VNQSytcOBWokNpSVMfIY-74" value="" style="line;strokeWidth=1;fillColor=none;align=left;verticalAlign=middle;spacingTop=-1;spacingLeft=3;spacingRight=3;rotatable=0;labelPosition=right;points=[];portConstraint=eastwest;strokeColor=inherit;" parent="VNQSytcOBWokNpSVMfIY-72" vertex="1">
          <mxGeometry y="80" width="310" height="8" as="geometry" />
        </mxCell>
        <mxCell id="VNQSytcOBWokNpSVMfIY-75" value="+ getMeasuresAtPeriod(Date date1, Date date2): Vector&amp;lt;Measure&amp;gt;&lt;br&gt;+ getMeasuresAtMoment(Date date): Vector&amp;lt;Measure&amp;gt;&lt;br&gt;+ getSensorsAround(Coordinates coord, double radius): Vector&amp;lt;Sensor&amp;gt;&lt;br&gt;+ getSensorData(String sensorId): Vector&amp;lt;Measure&amp;gt;" style="text;strokeColor=none;fillColor=none;align=left;verticalAlign=top;spacingLeft=4;spacingRight=4;overflow=hidden;rotatable=0;points=[[0,0.5],[1,0.5]];portConstraint=eastwest;whiteSpace=wrap;html=1;" parent="VNQSytcOBWokNpSVMfIY-72" vertex="1">
          <mxGeometry y="88" width="310" height="102" as="geometry" />
        </mxCell>
        <mxCell id="VNQSytcOBWokNpSVMfIY-78" value="DataManageUser" style="swimlane;fontStyle=1;align=center;verticalAlign=top;childLayout=stackLayout;horizontal=1;startSize=26;horizontalStack=0;resizeParent=1;resizeParentMax=0;resizeLast=0;collapsible=1;marginBottom=0;whiteSpace=wrap;html=1;fillColor=#d5e8d4;strokeColor=#82b366;" parent="1" vertex="1">
          <mxGeometry x="727.5" y="130" width="165" height="110" as="geometry" />
        </mxCell>
        <mxCell id="VNQSytcOBWokNpSVMfIY-79" value="- allUsers: List&amp;lt;User&amp;gt;" style="text;strokeColor=none;fillColor=none;align=left;verticalAlign=top;spacingLeft=4;spacingRight=4;overflow=hidden;rotatable=0;points=[[0,0.5],[1,0.5]];portConstraint=eastwest;whiteSpace=wrap;html=1;" parent="VNQSytcOBWokNpSVMfIY-78" vertex="1">
          <mxGeometry y="26" width="165" height="34" as="geometry" />
        </mxCell>
        <mxCell id="VNQSytcOBWokNpSVMfIY-80" value="" style="line;strokeWidth=1;fillColor=none;align=left;verticalAlign=middle;spacingTop=-1;spacingLeft=3;spacingRight=3;rotatable=0;labelPosition=right;points=[];portConstraint=eastwest;strokeColor=inherit;" parent="VNQSytcOBWokNpSVMfIY-78" vertex="1">
          <mxGeometry y="60" width="165" height="8" as="geometry" />
        </mxCell>
        <mxCell id="VNQSytcOBWokNpSVMfIY-81" value="+ authenticateUser(String id, String password): User" style="text;strokeColor=none;fillColor=none;align=left;verticalAlign=top;spacingLeft=4;spacingRight=4;overflow=hidden;rotatable=0;points=[[0,0.5],[1,0.5]];portConstraint=eastwest;whiteSpace=wrap;html=1;" parent="VNQSytcOBWokNpSVMfIY-78" vertex="1">
          <mxGeometry y="68" width="165" height="42" as="geometry" />
        </mxCell>
        <mxCell id="VNQSytcOBWokNpSVMfIY-82" value="" style="endArrow=block;endFill=1;html=1;edgeStyle=orthogonalEdgeStyle;align=left;verticalAlign=top;rounded=0;exitX=0;exitY=0.5;exitDx=0;exitDy=0;" parent="1" source="VNQSytcOBWokNpSVMfIY-79" target="VNQSytcOBWokNpSVMfIY-4" edge="1">
          <mxGeometry x="-1" relative="1" as="geometry">
            <mxPoint x="142" y="250" as="sourcePoint" />
            <mxPoint x="615" y="160" as="targetPoint" />
            <Array as="points">
              <mxPoint x="640" y="173" />
              <mxPoint x="640" y="173" />
            </Array>
          </mxGeometry>
        </mxCell>
        <mxCell id="VNQSytcOBWokNpSVMfIY-84" value="Use" style="endArrow=open;endSize=12;dashed=1;html=1;rounded=0;exitX=1;exitY=0.5;exitDx=0;exitDy=0;entryX=0.5;entryY=0;entryDx=0;entryDy=0;" parent="1" source="VNQSytcOBWokNpSVMfIY-33" target="VNQSytcOBWokNpSVMfIY-78" edge="1">
          <mxGeometry x="0.2481" width="160" relative="1" as="geometry">
            <mxPoint x="760" y="67" as="sourcePoint" />
            <mxPoint x="1077" y="270" as="targetPoint" />
            <Array as="points">
              <mxPoint x="810" y="57" />
            </Array>
            <mxPoint as="offset" />
          </mxGeometry>
        </mxCell>
        <mxCell id="VNQSytcOBWokNpSVMfIY-85" value="" style="endArrow=block;endFill=1;html=1;edgeStyle=orthogonalEdgeStyle;align=left;verticalAlign=top;rounded=0;exitX=0.516;exitY=1.019;exitDx=0;exitDy=0;exitPerimeter=0;entryX=0.5;entryY=0;entryDx=0;entryDy=0;" parent="1" source="VNQSytcOBWokNpSVMfIY-75" target="VNQSytcOBWokNpSVMfIY-42" edge="1">
          <mxGeometry x="-1" relative="1" as="geometry">
            <mxPoint x="738" y="183" as="sourcePoint" />
            <mxPoint x="625" y="229" as="targetPoint" />
            <Array as="points">
              <mxPoint x="995" y="515" />
              <mxPoint x="940" y="515" />
            </Array>
          </mxGeometry>
        </mxCell>
        <mxCell id="VNQSytcOBWokNpSVMfIY-86" value="" style="endArrow=block;endFill=1;html=1;edgeStyle=orthogonalEdgeStyle;align=left;verticalAlign=top;rounded=0;exitX=0.426;exitY=1.037;exitDx=0;exitDy=0;exitPerimeter=0;" parent="1" source="VNQSytcOBWokNpSVMfIY-75" edge="1">
          <mxGeometry x="-1" relative="1" as="geometry">
            <mxPoint x="1005" y="462" as="sourcePoint" />
            <mxPoint x="800" y="709" as="targetPoint" />
            <Array as="points">
              <mxPoint x="967" y="490" />
              <mxPoint x="800" y="490" />
              <mxPoint x="800" y="709" />
            </Array>
          </mxGeometry>
        </mxCell>
        <mxCell id="VNQSytcOBWokNpSVMfIY-87" value="" style="endArrow=block;endFill=1;html=1;edgeStyle=orthogonalEdgeStyle;align=left;verticalAlign=top;rounded=0;entryX=0.75;entryY=0;entryDx=0;entryDy=0;" parent="1" source="VNQSytcOBWokNpSVMfIY-4" target="VNQSytcOBWokNpSVMfIY-38" edge="1">
          <mxGeometry x="-1" relative="1" as="geometry">
            <mxPoint x="620" y="260" as="sourcePoint" />
            <mxPoint x="680" y="613" as="targetPoint" />
            <Array as="points">
              <mxPoint x="680" y="270" />
              <mxPoint x="680" y="590" />
              <mxPoint x="640" y="590" />
            </Array>
          </mxGeometry>
        </mxCell>
        <mxCell id="VNQSytcOBWokNpSVMfIY-88" value="" style="endArrow=block;endFill=1;html=1;edgeStyle=orthogonalEdgeStyle;align=left;verticalAlign=top;rounded=0;exitX=1.001;exitY=0.788;exitDx=0;exitDy=0;exitPerimeter=0;" parent="1" source="VNQSytcOBWokNpSVMfIY-4" edge="1">
          <mxGeometry x="-1" relative="1" as="geometry">
            <mxPoint x="650" y="260" as="sourcePoint" />
            <mxPoint x="740" y="710" as="targetPoint" />
            <Array as="points">
              <mxPoint x="740" y="260" />
              <mxPoint x="740" y="708" />
            </Array>
          </mxGeometry>
        </mxCell>
        <mxCell id="VNQSytcOBWokNpSVMfIY-90" value="" style="endArrow=block;endFill=1;html=1;edgeStyle=orthogonalEdgeStyle;align=left;verticalAlign=top;rounded=0;exitX=1.006;exitY=0.725;exitDx=0;exitDy=0;exitPerimeter=0;entryX=0;entryY=0.25;entryDx=0;entryDy=0;" parent="1" source="VNQSytcOBWokNpSVMfIY-4" target="VNQSytcOBWokNpSVMfIY-42" edge="1">
          <mxGeometry x="-1" relative="1" as="geometry">
            <mxPoint x="637.48" y="251.5" as="sourcePoint" />
            <mxPoint x="772.48" y="698.5" as="targetPoint" />
            <Array as="points">
              <mxPoint x="763" y="251" />
              <mxPoint x="763" y="604" />
              <mxPoint x="773" y="604" />
            </Array>
          </mxGeometry>
        </mxCell>
        <mxCell id="46iz_8Q2Tla9tHOPQVGm-1" value="&lt;i&gt;&amp;lt;&amp;lt;abstract&amp;gt;&amp;gt;&lt;/i&gt;&lt;br&gt;User" style="swimlane;fontStyle=1;align=center;verticalAlign=top;childLayout=stackLayout;horizontal=1;startSize=43;horizontalStack=0;resizeParent=1;resizeParentMax=0;resizeLast=0;collapsible=1;marginBottom=0;whiteSpace=wrap;html=1;fillColor=#d5e8d4;strokeColor=#82b366;" parent="1" vertex="1">
          <mxGeometry x="3100" y="-330" width="151" height="88" as="geometry" />
        </mxCell>
        <mxCell id="46iz_8Q2Tla9tHOPQVGm-2" value="# id: String&lt;br&gt;# password: String" style="text;strokeColor=none;fillColor=none;align=left;verticalAlign=top;spacingLeft=4;spacingRight=4;overflow=hidden;rotatable=0;points=[[0,0.5],[1,0.5]];portConstraint=eastwest;whiteSpace=wrap;html=1;" parent="46iz_8Q2Tla9tHOPQVGm-1" vertex="1">
          <mxGeometry y="43" width="151" height="37" as="geometry" />
        </mxCell>
        <mxCell id="46iz_8Q2Tla9tHOPQVGm-3" value="" style="line;strokeWidth=1;fillColor=none;align=left;verticalAlign=middle;spacingTop=-1;spacingLeft=3;spacingRight=3;rotatable=0;labelPosition=right;points=[];portConstraint=eastwest;strokeColor=inherit;" parent="46iz_8Q2Tla9tHOPQVGm-1" vertex="1">
          <mxGeometry y="80" width="151" height="8" as="geometry" />
        </mxCell>
        <mxCell id="0IUmfTfqXBqnDYrN5mXU-15" style="edgeStyle=orthogonalEdgeStyle;rounded=0;orthogonalLoop=1;jettySize=auto;html=1;exitX=0.5;exitY=0;exitDx=0;exitDy=0;entryX=0.5;entryY=1;entryDx=0;entryDy=0;endArrow=block;endFill=0;" edge="1" parent="1" source="46iz_8Q2Tla9tHOPQVGm-6" target="46iz_8Q2Tla9tHOPQVGm-1">
          <mxGeometry relative="1" as="geometry" />
        </mxCell>
        <mxCell id="46iz_8Q2Tla9tHOPQVGm-6" value="Admin" style="swimlane;fontStyle=1;align=center;verticalAlign=top;childLayout=stackLayout;horizontal=1;startSize=26;horizontalStack=0;resizeParent=1;resizeParentMax=0;resizeLast=0;collapsible=1;marginBottom=0;whiteSpace=wrap;html=1;fillColor=#d5e8d4;strokeColor=#82b366;" parent="1" vertex="1">
          <mxGeometry x="3116" y="-190" width="120" height="34" as="geometry" />
        </mxCell>
        <mxCell id="46iz_8Q2Tla9tHOPQVGm-7" value="" style="line;strokeWidth=1;fillColor=none;align=left;verticalAlign=middle;spacingTop=-1;spacingLeft=3;spacingRight=3;rotatable=0;labelPosition=right;points=[];portConstraint=eastwest;strokeColor=inherit;" parent="46iz_8Q2Tla9tHOPQVGm-6" vertex="1">
          <mxGeometry y="26" width="120" height="8" as="geometry" />
        </mxCell>
        <mxCell id="46iz_8Q2Tla9tHOPQVGm-9" style="edgeStyle=orthogonalEdgeStyle;rounded=0;orthogonalLoop=1;jettySize=auto;html=1;exitX=0.5;exitY=0;exitDx=0;exitDy=0;endArrow=block;endFill=0;targetPerimeterSpacing=0;strokeWidth=1;entryX=0.25;entryY=1;entryDx=0;entryDy=0;" parent="1" source="46iz_8Q2Tla9tHOPQVGm-15" target="46iz_8Q2Tla9tHOPQVGm-1" edge="1">
          <mxGeometry relative="1" as="geometry">
            <mxPoint x="3149.16" y="272.1399999999999" as="targetPoint" />
            <Array as="points">
              <mxPoint x="3015" y="-210" />
              <mxPoint x="3138" y="-210" />
            </Array>
          </mxGeometry>
        </mxCell>
        <mxCell id="0IUmfTfqXBqnDYrN5mXU-17" style="edgeStyle=orthogonalEdgeStyle;rounded=0;orthogonalLoop=1;jettySize=auto;html=1;entryX=0.75;entryY=1;entryDx=0;entryDy=0;endArrow=block;endFill=0;" edge="1" parent="1" source="46iz_8Q2Tla9tHOPQVGm-10" target="46iz_8Q2Tla9tHOPQVGm-1">
          <mxGeometry relative="1" as="geometry">
            <Array as="points">
              <mxPoint x="3385" y="-210" />
              <mxPoint x="3213" y="-210" />
            </Array>
          </mxGeometry>
        </mxCell>
        <mxCell id="46iz_8Q2Tla9tHOPQVGm-10" value="PrivIndiv" style="swimlane;fontStyle=1;align=center;verticalAlign=top;childLayout=stackLayout;horizontal=1;startSize=26;horizontalStack=0;resizeParent=1;resizeParentMax=0;resizeLast=0;collapsible=1;marginBottom=0;whiteSpace=wrap;html=1;fillColor=#d5e8d4;strokeColor=#82b366;" parent="1" vertex="1">
          <mxGeometry x="3280" y="-200" width="210" height="68" as="geometry" />
        </mxCell>
        <mxCell id="46iz_8Q2Tla9tHOPQVGm-11" value="# providedSensors: Vector&amp;lt;Sensor&amp;gt;&lt;br&gt;# points: int" style="text;strokeColor=none;fillColor=none;align=left;verticalAlign=top;spacingLeft=4;spacingRight=4;overflow=hidden;rotatable=0;points=[[0,0.5],[1,0.5]];portConstraint=eastwest;whiteSpace=wrap;html=1;" parent="46iz_8Q2Tla9tHOPQVGm-10" vertex="1">
          <mxGeometry y="26" width="210" height="34" as="geometry" />
        </mxCell>
        <mxCell id="46iz_8Q2Tla9tHOPQVGm-12" value="" style="line;strokeWidth=1;fillColor=none;align=left;verticalAlign=middle;spacingTop=-1;spacingLeft=3;spacingRight=3;rotatable=0;labelPosition=right;points=[];portConstraint=eastwest;strokeColor=inherit;" parent="46iz_8Q2Tla9tHOPQVGm-10" vertex="1">
          <mxGeometry y="60" width="210" height="8" as="geometry" />
        </mxCell>
        <mxCell id="46iz_8Q2Tla9tHOPQVGm-15" value="SuperUser" style="swimlane;fontStyle=1;align=center;verticalAlign=top;childLayout=stackLayout;horizontal=1;startSize=26;horizontalStack=0;resizeParent=1;resizeParentMax=0;resizeLast=0;collapsible=1;marginBottom=0;whiteSpace=wrap;html=1;fillColor=#d5e8d4;strokeColor=#82b366;" parent="1" vertex="1">
          <mxGeometry x="2950" y="-190" width="130" height="34" as="geometry" />
        </mxCell>
        <mxCell id="46iz_8Q2Tla9tHOPQVGm-16" value="" style="line;strokeWidth=1;fillColor=none;align=left;verticalAlign=middle;spacingTop=-1;spacingLeft=3;spacingRight=3;rotatable=0;labelPosition=right;points=[];portConstraint=eastwest;strokeColor=inherit;" parent="46iz_8Q2Tla9tHOPQVGm-15" vertex="1">
          <mxGeometry y="26" width="130" height="8" as="geometry" />
        </mxCell>
        <mxCell id="46iz_8Q2Tla9tHOPQVGm-18" style="edgeStyle=orthogonalEdgeStyle;rounded=0;orthogonalLoop=1;jettySize=auto;html=1;endArrow=block;endFill=0;exitX=0.5;exitY=0;exitDx=0;exitDy=0;entryX=0.75;entryY=1;entryDx=0;entryDy=0;" parent="1" source="46iz_8Q2Tla9tHOPQVGm-20" target="46iz_8Q2Tla9tHOPQVGm-15" edge="1">
          <mxGeometry relative="1" as="geometry">
            <mxPoint x="3045" y="84" as="targetPoint" />
          </mxGeometry>
        </mxCell>
        <mxCell id="46iz_8Q2Tla9tHOPQVGm-20" value="Provider" style="swimlane;fontStyle=1;align=center;verticalAlign=top;childLayout=stackLayout;horizontal=1;startSize=26;horizontalStack=0;resizeParent=1;resizeParentMax=0;resizeLast=0;collapsible=1;marginBottom=0;whiteSpace=wrap;html=1;fillColor=#d5e8d4;strokeColor=#82b366;" parent="1" vertex="1">
          <mxGeometry x="3051" y="-80" width="200" height="58" as="geometry" />
        </mxCell>
        <mxCell id="46iz_8Q2Tla9tHOPQVGm-21" value="# providedAC: Vector&amp;lt;AirCleaner&amp;gt;" style="text;strokeColor=none;fillColor=none;align=left;verticalAlign=top;spacingLeft=4;spacingRight=4;overflow=hidden;rotatable=0;points=[[0,0.5],[1,0.5]];portConstraint=eastwest;whiteSpace=wrap;html=1;" parent="46iz_8Q2Tla9tHOPQVGm-20" vertex="1">
          <mxGeometry y="26" width="200" height="24" as="geometry" />
        </mxCell>
        <mxCell id="46iz_8Q2Tla9tHOPQVGm-22" value="" style="line;strokeWidth=1;fillColor=none;align=left;verticalAlign=middle;spacingTop=-1;spacingLeft=3;spacingRight=3;rotatable=0;labelPosition=right;points=[];portConstraint=eastwest;strokeColor=inherit;" parent="46iz_8Q2Tla9tHOPQVGm-20" vertex="1">
          <mxGeometry y="50" width="200" height="8" as="geometry" />
        </mxCell>
        <mxCell id="46iz_8Q2Tla9tHOPQVGm-29" value="Sensor" style="swimlane;fontStyle=1;align=center;verticalAlign=top;childLayout=stackLayout;horizontal=1;startSize=26;horizontalStack=0;resizeParent=1;resizeParentMax=0;resizeLast=0;collapsible=1;marginBottom=0;whiteSpace=wrap;html=1;fillColor=#d5e8d4;strokeColor=#82b366;" parent="1" vertex="1">
          <mxGeometry x="3065" y="270" width="160" height="100" as="geometry" />
        </mxCell>
        <mxCell id="46iz_8Q2Tla9tHOPQVGm-30" value="# id: string&lt;br&gt;# coord: Coordinates&lt;br&gt;# reliable: boolean&lt;br&gt;# privIndivId: string" style="text;strokeColor=none;fillColor=none;align=left;verticalAlign=top;spacingLeft=4;spacingRight=4;overflow=hidden;rotatable=0;points=[[0,0.5],[1,0.5]];portConstraint=eastwest;whiteSpace=wrap;html=1;" parent="46iz_8Q2Tla9tHOPQVGm-29" vertex="1">
          <mxGeometry y="26" width="160" height="64" as="geometry" />
        </mxCell>
        <mxCell id="46iz_8Q2Tla9tHOPQVGm-31" value="" style="line;strokeWidth=1;fillColor=none;align=left;verticalAlign=middle;spacingTop=-1;spacingLeft=3;spacingRight=3;rotatable=0;labelPosition=right;points=[];portConstraint=eastwest;strokeColor=inherit;" parent="46iz_8Q2Tla9tHOPQVGm-29" vertex="1">
          <mxGeometry y="90" width="160" height="10" as="geometry" />
        </mxCell>
        <mxCell id="0IUmfTfqXBqnDYrN5mXU-41" style="edgeStyle=orthogonalEdgeStyle;rounded=0;orthogonalLoop=1;jettySize=auto;html=1;entryX=0.503;entryY=1.024;entryDx=0;entryDy=0;entryPerimeter=0;endArrow=block;endFill=1;" edge="1" parent="1" source="46iz_8Q2Tla9tHOPQVGm-33" target="yoNJW2muiEM-XHwD3TKA-2">
          <mxGeometry relative="1" as="geometry" />
        </mxCell>
        <mxCell id="46iz_8Q2Tla9tHOPQVGm-33" value="AirCleaner" style="swimlane;fontStyle=1;align=center;verticalAlign=top;childLayout=stackLayout;horizontal=1;startSize=26;horizontalStack=0;resizeParent=1;resizeParentMax=0;resizeLast=0;collapsible=1;marginBottom=0;whiteSpace=wrap;html=1;fillColor=#d5e8d4;strokeColor=#82b366;" parent="1" vertex="1">
          <mxGeometry x="2861" y="470" width="160" height="98" as="geometry" />
        </mxCell>
        <mxCell id="46iz_8Q2Tla9tHOPQVGm-34" value="# id: String&lt;br&gt;# coord: Coordinates&lt;br&gt;# DateStart: Date&lt;br&gt;# DateStop: Date" style="text;strokeColor=none;fillColor=none;align=left;verticalAlign=top;spacingLeft=4;spacingRight=4;overflow=hidden;rotatable=0;points=[[0,0.5],[1,0.5]];portConstraint=eastwest;whiteSpace=wrap;html=1;" parent="46iz_8Q2Tla9tHOPQVGm-33" vertex="1">
          <mxGeometry y="26" width="160" height="64" as="geometry" />
        </mxCell>
        <mxCell id="46iz_8Q2Tla9tHOPQVGm-35" value="" style="line;strokeWidth=1;fillColor=none;align=left;verticalAlign=middle;spacingTop=-1;spacingLeft=3;spacingRight=3;rotatable=0;labelPosition=right;points=[];portConstraint=eastwest;strokeColor=inherit;" parent="46iz_8Q2Tla9tHOPQVGm-33" vertex="1">
          <mxGeometry y="90" width="160" height="8" as="geometry" />
        </mxCell>
        <mxCell id="46iz_8Q2Tla9tHOPQVGm-36" value="Measure" style="swimlane;fontStyle=1;align=center;verticalAlign=top;childLayout=stackLayout;horizontal=1;startSize=26;horizontalStack=0;resizeParent=1;resizeParentMax=0;resizeLast=0;collapsible=1;marginBottom=0;whiteSpace=wrap;html=1;fillColor=#d5e8d4;strokeColor=#82b366;" parent="1" vertex="1">
          <mxGeometry x="3195" y="141" width="160" height="98" as="geometry" />
        </mxCell>
        <mxCell id="46iz_8Q2Tla9tHOPQVGm-37" value="# sensorId: string&lt;br&gt;# dateMeas: time_t&lt;br&gt;# attributeType: string&lt;br&gt;# value: double" style="text;strokeColor=none;fillColor=none;align=left;verticalAlign=top;spacingLeft=4;spacingRight=4;overflow=hidden;rotatable=0;points=[[0,0.5],[1,0.5]];portConstraint=eastwest;whiteSpace=wrap;html=1;" parent="46iz_8Q2Tla9tHOPQVGm-36" vertex="1">
          <mxGeometry y="26" width="160" height="64" as="geometry" />
        </mxCell>
        <mxCell id="46iz_8Q2Tla9tHOPQVGm-38" value="" style="line;strokeWidth=1;fillColor=none;align=left;verticalAlign=middle;spacingTop=-1;spacingLeft=3;spacingRight=3;rotatable=0;labelPosition=right;points=[];portConstraint=eastwest;strokeColor=inherit;" parent="46iz_8Q2Tla9tHOPQVGm-36" vertex="1">
          <mxGeometry y="90" width="160" height="8" as="geometry" />
        </mxCell>
        <mxCell id="46iz_8Q2Tla9tHOPQVGm-39" value="Attribute" style="swimlane;fontStyle=1;align=center;verticalAlign=top;childLayout=stackLayout;horizontal=1;startSize=26;horizontalStack=0;resizeParent=1;resizeParentMax=0;resizeLast=0;collapsible=1;marginBottom=0;whiteSpace=wrap;html=1;fillColor=#d5e8d4;strokeColor=#82b366;" parent="1" vertex="1">
          <mxGeometry x="3320" y="281" width="160" height="88" as="geometry" />
        </mxCell>
        <mxCell id="46iz_8Q2Tla9tHOPQVGm-40" value="- type: string&lt;br&gt;- unit: string&lt;br&gt;- description: string" style="text;strokeColor=none;fillColor=none;align=left;verticalAlign=top;spacingLeft=4;spacingRight=4;overflow=hidden;rotatable=0;points=[[0,0.5],[1,0.5]];portConstraint=eastwest;whiteSpace=wrap;html=1;" parent="46iz_8Q2Tla9tHOPQVGm-39" vertex="1">
          <mxGeometry y="26" width="160" height="54" as="geometry" />
        </mxCell>
        <mxCell id="46iz_8Q2Tla9tHOPQVGm-41" value="" style="line;strokeWidth=1;fillColor=none;align=left;verticalAlign=middle;spacingTop=-1;spacingLeft=3;spacingRight=3;rotatable=0;labelPosition=right;points=[];portConstraint=eastwest;strokeColor=inherit;" parent="46iz_8Q2Tla9tHOPQVGm-39" vertex="1">
          <mxGeometry y="80" width="160" height="8" as="geometry" />
        </mxCell>
        <mxCell id="46iz_8Q2Tla9tHOPQVGm-44" value="Use" style="endArrow=blockThin;endSize=8;dashed=1;html=1;rounded=0;exitX=0;exitY=0.5;exitDx=0;exitDy=0;entryX=0.5;entryY=0;entryDx=0;entryDy=0;endFill=1;" parent="1" source="46iz_8Q2Tla9tHOPQVGm-37" target="46iz_8Q2Tla9tHOPQVGm-29" edge="1">
          <mxGeometry width="160" relative="1" as="geometry">
            <mxPoint x="2950" y="151" as="sourcePoint" />
            <mxPoint x="3110" y="151" as="targetPoint" />
          </mxGeometry>
        </mxCell>
        <mxCell id="46iz_8Q2Tla9tHOPQVGm-45" value="Use" style="endArrow=blockThin;endSize=8;dashed=1;html=1;rounded=0;exitX=1;exitY=0.5;exitDx=0;exitDy=0;entryX=0.5;entryY=0;entryDx=0;entryDy=0;endFill=1;" parent="1" source="46iz_8Q2Tla9tHOPQVGm-37" target="46iz_8Q2Tla9tHOPQVGm-39" edge="1">
          <mxGeometry width="160" relative="1" as="geometry">
            <mxPoint x="3470" y="141" as="sourcePoint" />
            <mxPoint x="3630" y="141" as="targetPoint" />
          </mxGeometry>
        </mxCell>
        <mxCell id="0IUmfTfqXBqnDYrN5mXU-16" style="edgeStyle=orthogonalEdgeStyle;rounded=0;orthogonalLoop=1;jettySize=auto;html=1;endArrow=blockThin;endFill=0;entryX=0.5;entryY=1;entryDx=0;entryDy=0;" edge="1" parent="1" source="46iz_8Q2Tla9tHOPQVGm-46" target="46iz_8Q2Tla9tHOPQVGm-15">
          <mxGeometry relative="1" as="geometry">
            <mxPoint x="2970" y="-150" as="targetPoint" />
          </mxGeometry>
        </mxCell>
        <mxCell id="46iz_8Q2Tla9tHOPQVGm-46" value="MemberGov" style="swimlane;fontStyle=1;align=center;verticalAlign=top;childLayout=stackLayout;horizontal=1;startSize=26;horizontalStack=0;resizeParent=1;resizeParentMax=0;resizeLast=0;collapsible=1;marginBottom=0;whiteSpace=wrap;html=1;fillColor=#d5e8d4;strokeColor=#82b366;" parent="1" vertex="1">
          <mxGeometry x="2903" y="-80" width="107" height="34" as="geometry" />
        </mxCell>
        <mxCell id="46iz_8Q2Tla9tHOPQVGm-47" value="" style="line;strokeWidth=1;fillColor=none;align=left;verticalAlign=middle;spacingTop=-1;spacingLeft=3;spacingRight=3;rotatable=0;labelPosition=right;points=[];portConstraint=eastwest;strokeColor=inherit;" parent="46iz_8Q2Tla9tHOPQVGm-46" vertex="1">
          <mxGeometry y="26" width="107" height="8" as="geometry" />
        </mxCell>
        <mxCell id="gk7VsiWPiI99spmP87R4-53" style="edgeStyle=orthogonalEdgeStyle;rounded=0;orthogonalLoop=1;jettySize=auto;html=1;entryX=0.5;entryY=0;entryDx=0;entryDy=0;dashed=1;" parent="1" target="gk7VsiWPiI99spmP87R4-21" edge="1">
          <mxGeometry relative="1" as="geometry">
            <Array as="points">
              <mxPoint x="2829" y="-550" />
              <mxPoint x="2640" y="-550" />
            </Array>
            <mxPoint x="2829" y="-557" as="sourcePoint" />
          </mxGeometry>
        </mxCell>
        <mxCell id="gk7VsiWPiI99spmP87R4-60" value="Use" style="edgeLabel;html=1;align=center;verticalAlign=middle;resizable=0;points=[];" parent="gk7VsiWPiI99spmP87R4-53" vertex="1" connectable="0">
          <mxGeometry x="-0.5295" y="-2" relative="1" as="geometry">
            <mxPoint x="-113" as="offset" />
          </mxGeometry>
        </mxCell>
        <mxCell id="gk7VsiWPiI99spmP87R4-55" style="edgeStyle=orthogonalEdgeStyle;rounded=0;orthogonalLoop=1;jettySize=auto;html=1;dashed=1;exitX=0.653;exitY=1.026;exitDx=0;exitDy=0;exitPerimeter=0;entryX=0;entryY=0.5;entryDx=0;entryDy=0;" parent="1" source="0IUmfTfqXBqnDYrN5mXU-3" target="gk7VsiWPiI99spmP87R4-7" edge="1">
          <mxGeometry relative="1" as="geometry">
            <Array as="points">
              <mxPoint x="2913" y="-401" />
            </Array>
            <mxPoint x="2913" y="-400" as="sourcePoint" />
            <mxPoint x="3030" y="-330" as="targetPoint" />
          </mxGeometry>
        </mxCell>
        <mxCell id="gk7VsiWPiI99spmP87R4-61" value="Use" style="edgeLabel;html=1;align=center;verticalAlign=middle;resizable=0;points=[];" parent="gk7VsiWPiI99spmP87R4-55" vertex="1" connectable="0">
          <mxGeometry x="-0.0878" y="-1" relative="1" as="geometry">
            <mxPoint as="offset" />
          </mxGeometry>
        </mxCell>
        <mxCell id="0IUmfTfqXBqnDYrN5mXU-20" style="edgeStyle=orthogonalEdgeStyle;rounded=0;orthogonalLoop=1;jettySize=auto;html=1;entryX=0.5;entryY=0;entryDx=0;entryDy=0;" edge="1" parent="1" source="gk7VsiWPiI99spmP87R4-4" target="46iz_8Q2Tla9tHOPQVGm-1">
          <mxGeometry relative="1" as="geometry" />
        </mxCell>
        <mxCell id="gk7VsiWPiI99spmP87R4-4" value="AuthenticationService&lt;br&gt;" style="swimlane;fontStyle=1;align=center;verticalAlign=top;childLayout=stackLayout;horizontal=1;startSize=26;horizontalStack=0;resizeParent=1;resizeParentMax=0;resizeLast=0;collapsible=1;marginBottom=0;whiteSpace=wrap;html=1;fillColor=#f8cecc;strokeColor=#b85450;" parent="1" vertex="1">
          <mxGeometry x="3046" y="-500" width="260" height="138" as="geometry" />
        </mxCell>
        <mxCell id="h3gDe4td7jXamhoJoygT-2" value="# data : DataSet &amp;amp;" style="text;strokeColor=none;fillColor=none;align=left;verticalAlign=top;spacingLeft=4;spacingRight=4;overflow=hidden;rotatable=0;points=[[0,0.5],[1,0.5]];portConstraint=eastwest;whiteSpace=wrap;html=1;" parent="gk7VsiWPiI99spmP87R4-4" vertex="1">
          <mxGeometry y="26" width="260" height="26" as="geometry" />
        </mxCell>
        <mxCell id="gk7VsiWPiI99spmP87R4-5" value="" style="line;strokeWidth=1;fillColor=none;align=left;verticalAlign=middle;spacingTop=-1;spacingLeft=3;spacingRight=3;rotatable=0;labelPosition=right;points=[];portConstraint=eastwest;strokeColor=inherit;" parent="gk7VsiWPiI99spmP87R4-4" vertex="1">
          <mxGeometry y="52" width="260" height="8" as="geometry" />
        </mxCell>
        <mxCell id="gk7VsiWPiI99spmP87R4-6" value="+ signIn(String id, String password) : User" style="text;strokeColor=none;fillColor=none;align=left;verticalAlign=top;spacingLeft=4;spacingRight=4;overflow=hidden;rotatable=0;points=[[0,0.5],[1,0.5]];portConstraint=eastwest;whiteSpace=wrap;html=1;" parent="gk7VsiWPiI99spmP87R4-4" vertex="1">
          <mxGeometry y="60" width="260" height="26" as="geometry" />
        </mxCell>
        <mxCell id="gk7VsiWPiI99spmP87R4-7" value="+ signUp(String id, String password) : void" style="text;strokeColor=none;fillColor=none;align=left;verticalAlign=top;spacingLeft=4;spacingRight=4;overflow=hidden;rotatable=0;points=[[0,0.5],[1,0.5]];portConstraint=eastwest;whiteSpace=wrap;html=1;" parent="gk7VsiWPiI99spmP87R4-4" vertex="1">
          <mxGeometry y="86" width="260" height="26" as="geometry" />
        </mxCell>
        <mxCell id="gk7VsiWPiI99spmP87R4-8" value="+ signOut() : void" style="text;strokeColor=none;fillColor=none;align=left;verticalAlign=top;spacingLeft=4;spacingRight=4;overflow=hidden;rotatable=0;points=[[0,0.5],[1,0.5]];portConstraint=eastwest;whiteSpace=wrap;html=1;" parent="gk7VsiWPiI99spmP87R4-4" vertex="1">
          <mxGeometry y="112" width="260" height="26" as="geometry" />
        </mxCell>
        <mxCell id="lFe04iEfEHljoj5emuic-7" style="edgeStyle=orthogonalEdgeStyle;rounded=0;orthogonalLoop=1;jettySize=auto;html=1;dashed=1;entryX=0.25;entryY=0;entryDx=0;entryDy=0;exitX=0.487;exitY=0.995;exitDx=0;exitDy=0;exitPerimeter=0;" parent="1" source="gk7VsiWPiI99spmP87R4-23" edge="1" target="0IUmfTfqXBqnDYrN5mXU-28">
          <mxGeometry relative="1" as="geometry">
            <Array as="points">
              <mxPoint x="2634" y="96" />
              <mxPoint x="2634" y="96" />
              <mxPoint x="2634" y="180" />
              <mxPoint x="2540" y="180" />
            </Array>
            <mxPoint x="2585" y="270" as="targetPoint" />
            <mxPoint x="3375" y="140" as="sourcePoint" />
          </mxGeometry>
        </mxCell>
        <mxCell id="gk7VsiWPiI99spmP87R4-21" value="AppService" style="swimlane;fontStyle=1;align=center;verticalAlign=top;childLayout=stackLayout;horizontal=1;startSize=26;horizontalStack=0;resizeParent=1;resizeParentMax=0;resizeLast=0;collapsible=1;marginBottom=0;whiteSpace=wrap;html=1;fillColor=#f8cecc;strokeColor=#b85450;" parent="1" vertex="1">
          <mxGeometry x="2430" y="-532" width="420" height="520" as="geometry" />
        </mxCell>
        <mxCell id="h3gDe4td7jXamhoJoygT-1" value="# data : DataSet &amp;amp;" style="text;strokeColor=none;fillColor=none;align=left;verticalAlign=top;spacingLeft=4;spacingRight=4;overflow=hidden;rotatable=0;points=[[0,0.5],[1,0.5]];portConstraint=eastwest;whiteSpace=wrap;html=1;" parent="gk7VsiWPiI99spmP87R4-21" vertex="1">
          <mxGeometry y="26" width="420" height="26" as="geometry" />
        </mxCell>
        <mxCell id="gk7VsiWPiI99spmP87R4-22" value="" style="line;strokeWidth=1;fillColor=none;align=left;verticalAlign=middle;spacingTop=-1;spacingLeft=3;spacingRight=3;rotatable=0;labelPosition=right;points=[];portConstraint=eastwest;strokeColor=inherit;" parent="gk7VsiWPiI99spmP87R4-21" vertex="1">
          <mxGeometry y="52" width="420" height="8" as="geometry" />
        </mxCell>
        <mxCell id="gk7VsiWPiI99spmP87R4-23" value="+ produceStatsPeriod(time_t day1 , time_t day2 , Coordinates coord , double radius, vector&amp;lt;Measure&amp;gt; measure): double&lt;br&gt;&lt;br&gt;+ produceStatsMoment(time_t day, Coordinates coord , double radius, vector&amp;lt;Measure&amp;gt; measure): double&lt;br&gt;&lt;br&gt;+ computeMeanATMOIdx(vector&amp;lt;Measure&amp;gt; listMeasures): double&lt;br&gt;&lt;br&gt;+ getSensorsAround(Coordinates coord, double radius, unordered_map&amp;lt;string, Sensor&amp;gt; sensorMap): unordered_map&amp;lt;string, Sensor&amp;gt;&lt;br&gt;&lt;br&gt;+ getMeasuresAtMoment(unordered_map&amp;lt;string, Sensor&amp;gt; sensorMap, time_t date): vector&amp;lt;Measure&amp;gt;&lt;br&gt;&lt;br&gt;+ getATMOIdx(double value, vector&amp;lt;pair&amp;lt;int,int&amp;gt;&amp;gt; breakpoints): int&lt;br&gt;&lt;br&gt;+ obsImpactLvlImprov(string id, double radius, vector&amp;lt;Measure&amp;gt; measBef ore, vector&amp;lt;Measure&amp;gt; measAfter): pair&amp;lt;int, vector&amp;lt;double&amp;gt;&amp;gt;&lt;br&gt;&lt;br&gt;+ obsImpactRadius(string id): pair&amp;lt;int, double&amp;gt;&lt;br&gt;&lt;br&gt;+ rankSimilarSensors(string id): map&amp;lt;string, double&amp;gt;&lt;br&gt;&lt;br&gt;+ produceValueMomentLocation(time_t day, Coordinates coord): double&lt;br&gt;&lt;br&gt;+ analyseDataPrivIndiv(string sensorId): vector&amp;lt;Measure&amp;gt;&lt;br&gt;&lt;br&gt;+ classifySensor(bool reliable): void&lt;br&gt;&lt;br&gt;+ getPointsPrivIndiv(string id): int" style="text;strokeColor=none;fillColor=none;align=left;verticalAlign=top;spacingLeft=4;spacingRight=4;overflow=hidden;rotatable=0;points=[[0,0.5],[1,0.5]];portConstraint=eastwest;whiteSpace=wrap;html=1;" parent="gk7VsiWPiI99spmP87R4-21" vertex="1">
          <mxGeometry y="60" width="420" height="460" as="geometry" />
        </mxCell>
        <mxCell id="gk7VsiWPiI99spmP87R4-58" style="edgeStyle=orthogonalEdgeStyle;rounded=0;orthogonalLoop=1;jettySize=auto;html=1;entryX=0.5;entryY=0;entryDx=0;entryDy=0;dashed=1;exitX=0.75;exitY=0;exitDx=0;exitDy=0;" parent="1" target="46iz_8Q2Tla9tHOPQVGm-36" edge="1" source="0IUmfTfqXBqnDYrN5mXU-28">
          <mxGeometry relative="1" as="geometry">
            <Array as="points">
              <mxPoint x="2690" y="120" />
              <mxPoint x="3275" y="120" />
            </Array>
            <mxPoint x="2635" y="129.99999999999955" as="sourcePoint" />
          </mxGeometry>
        </mxCell>
        <mxCell id="gk7VsiWPiI99spmP87R4-59" value="Use" style="edgeLabel;html=1;align=center;verticalAlign=middle;resizable=0;points=[];" parent="gk7VsiWPiI99spmP87R4-58" vertex="1" connectable="0">
          <mxGeometry x="-0.0835" y="-3" relative="1" as="geometry">
            <mxPoint x="-305" y="297" as="offset" />
          </mxGeometry>
        </mxCell>
        <mxCell id="0IUmfTfqXBqnDYrN5mXU-1" value="IHM" style="swimlane;fontStyle=1;align=center;verticalAlign=top;childLayout=stackLayout;horizontal=1;startSize=26;horizontalStack=0;resizeParent=1;resizeParentMax=0;resizeLast=0;collapsible=1;marginBottom=0;whiteSpace=wrap;html=1;fillColor=#dae8fc;strokeColor=#6c8ebf;" vertex="1" parent="1">
          <mxGeometry x="2730" y="-780" width="280" height="220" as="geometry" />
        </mxCell>
        <mxCell id="0IUmfTfqXBqnDYrN5mXU-2" value="" style="line;strokeWidth=1;fillColor=none;align=left;verticalAlign=middle;spacingTop=-1;spacingLeft=3;spacingRight=3;rotatable=0;labelPosition=right;points=[];portConstraint=eastwest;strokeColor=inherit;" vertex="1" parent="0IUmfTfqXBqnDYrN5mXU-1">
          <mxGeometry y="26" width="280" height="8" as="geometry" />
        </mxCell>
        <mxCell id="0IUmfTfqXBqnDYrN5mXU-3" value="+ main() : int&lt;br&gt;+ handleAdminFunctionalities(): void&lt;br&gt;+ handlePrivateIndividualFunctionalities(): void&lt;br&gt;+ handleGovernmentAgencyFunctionalities(): void&lt;br&gt;+ handleProviderFunctionalities() : void&lt;br&gt;+ getPerformanceAlgo(): void&lt;br&gt;+ produceStatistics(): void&lt;br&gt;+ rankSimilarSensors(): void&lt;br&gt;+ produceValueLocationMoment(): void&lt;br&gt;+ observeImpact(): void&lt;br&gt;+ analyseDataPrivIndiv(): void&lt;br&gt;+ seePoints(): void" style="text;strokeColor=none;fillColor=none;align=left;verticalAlign=top;spacingLeft=4;spacingRight=4;overflow=hidden;rotatable=0;points=[[0,0.5],[1,0.5]];portConstraint=eastwest;whiteSpace=wrap;html=1;" vertex="1" parent="0IUmfTfqXBqnDYrN5mXU-1">
          <mxGeometry y="34" width="280" height="186" as="geometry" />
        </mxCell>
        <mxCell id="0IUmfTfqXBqnDYrN5mXU-34" style="edgeStyle=orthogonalEdgeStyle;rounded=0;orthogonalLoop=1;jettySize=auto;html=1;entryX=0.5;entryY=0;entryDx=0;entryDy=0;dashed=1;" edge="1" parent="1" source="0IUmfTfqXBqnDYrN5mXU-28" target="0IUmfTfqXBqnDYrN5mXU-36">
          <mxGeometry relative="1" as="geometry">
            <mxPoint x="2615" y="450" as="targetPoint" />
          </mxGeometry>
        </mxCell>
        <mxCell id="0IUmfTfqXBqnDYrN5mXU-28" value="DataSet" style="swimlane;fontStyle=1;align=center;verticalAlign=top;childLayout=stackLayout;horizontal=1;startSize=26;horizontalStack=0;resizeParent=1;resizeParentMax=0;resizeLast=0;collapsible=1;marginBottom=0;whiteSpace=wrap;html=1;fillColor=#d5e8d4;strokeColor=#82b366;" vertex="1" parent="1">
          <mxGeometry x="2465" y="170" width="300" height="210" as="geometry" />
        </mxCell>
        <mxCell id="0IUmfTfqXBqnDYrN5mXU-29" value="- &amp;nbsp;unordered_map&amp;lt;string,Sensor&amp;gt; : sensorList&lt;br style=&quot;border-color: var(--border-color);&quot;&gt;- &amp;nbsp;unordered_map&amp;lt;string, AirCleaner&amp;gt; : airCleanerList&lt;br style=&quot;border-color: var(--border-color);&quot;&gt;- &amp;nbsp;unordered_map&amp;lt;string, PrivIndiv&amp;gt; : userList&lt;br style=&quot;border-color: var(--border-color);&quot;&gt;- Vector&amp;lt;Measure&amp;gt; : measureList&lt;br style=&quot;border-color: var(--border-color);&quot;&gt;- &amp;nbsp;unordered_map&amp;lt;string, Provider&amp;gt; : providerList&lt;br style=&quot;border-color: var(--border-color);&quot;&gt;- fileManager : FileManager" style="text;strokeColor=none;fillColor=none;align=left;verticalAlign=top;spacingLeft=4;spacingRight=4;overflow=hidden;rotatable=0;points=[[0,0.5],[1,0.5]];portConstraint=eastwest;whiteSpace=wrap;html=1;" vertex="1" parent="0IUmfTfqXBqnDYrN5mXU-28">
          <mxGeometry y="26" width="300" height="94" as="geometry" />
        </mxCell>
        <mxCell id="0IUmfTfqXBqnDYrN5mXU-30" value="" style="line;strokeWidth=1;fillColor=none;align=left;verticalAlign=middle;spacingTop=-1;spacingLeft=3;spacingRight=3;rotatable=0;labelPosition=right;points=[];portConstraint=eastwest;strokeColor=inherit;" vertex="1" parent="0IUmfTfqXBqnDYrN5mXU-28">
          <mxGeometry y="120" width="300" height="8" as="geometry" />
        </mxCell>
        <mxCell id="0IUmfTfqXBqnDYrN5mXU-31" value="+ initAirCleanersList() : void&lt;br&gt;+ initMeasureList() : void&lt;br&gt;+ initUserList() : void&lt;br&gt;+ initProviderList() : void&lt;br&gt;+ initSensorList() : void" style="text;strokeColor=none;fillColor=none;align=left;verticalAlign=top;spacingLeft=4;spacingRight=4;overflow=hidden;rotatable=0;points=[[0,0.5],[1,0.5]];portConstraint=eastwest;whiteSpace=wrap;html=1;" vertex="1" parent="0IUmfTfqXBqnDYrN5mXU-28">
          <mxGeometry y="128" width="300" height="82" as="geometry" />
        </mxCell>
        <mxCell id="0IUmfTfqXBqnDYrN5mXU-33" value="Use" style="edgeLabel;html=1;align=center;verticalAlign=middle;resizable=0;points=[];" vertex="1" connectable="0" parent="1">
          <mxGeometry x="2690" y="110" as="geometry">
            <mxPoint x="-60" y="-50" as="offset" />
          </mxGeometry>
        </mxCell>
        <mxCell id="0IUmfTfqXBqnDYrN5mXU-35" value="Use" style="edgeLabel;html=1;align=center;verticalAlign=middle;resizable=0;points=[];" vertex="1" connectable="0" parent="1">
          <mxGeometry x="3015" y="120" as="geometry" />
        </mxCell>
        <mxCell id="0IUmfTfqXBqnDYrN5mXU-36" value="FileManager" style="swimlane;fontStyle=1;align=center;verticalAlign=top;childLayout=stackLayout;horizontal=1;startSize=26;horizontalStack=0;resizeParent=1;resizeParentMax=0;resizeLast=0;collapsible=1;marginBottom=0;whiteSpace=wrap;html=1;fillColor=#f5f5f5;strokeColor=#666666;fontColor=#333333;" vertex="1" parent="1">
          <mxGeometry x="2440" y="433" width="350" height="128" as="geometry" />
        </mxCell>
        <mxCell id="0IUmfTfqXBqnDYrN5mXU-37" value="+ parseSensorList() : unordered_map&amp;lt;string,Sensor&amp;gt;&lt;br&gt;+ parseUserList() :&amp;nbsp;&amp;nbsp;unordered_map&amp;lt;string,vector&amp;lt;string&amp;gt;&amp;gt;&lt;br&gt;+ parseMeasureList() : vector&amp;lt;Measure&amp;gt;&lt;br&gt;+ parseAirCleanerList() : unordered_map&amp;lt;string, AirCleaner&amp;gt;&lt;br&gt;+ parseProviderList() : unordered_map&amp;lt;string, vector&amp;lt;string&amp;gt;&amp;gt;&lt;br&gt;+ convertToTime(string dateString) : time_t" style="text;strokeColor=none;fillColor=none;align=left;verticalAlign=top;spacingLeft=4;spacingRight=4;overflow=hidden;rotatable=0;points=[[0,0.5],[1,0.5]];portConstraint=eastwest;whiteSpace=wrap;html=1;" vertex="1" parent="0IUmfTfqXBqnDYrN5mXU-36">
          <mxGeometry y="26" width="350" height="94" as="geometry" />
        </mxCell>
        <mxCell id="0IUmfTfqXBqnDYrN5mXU-38" value="" style="line;strokeWidth=1;fillColor=none;align=left;verticalAlign=middle;spacingTop=-1;spacingLeft=3;spacingRight=3;rotatable=0;labelPosition=right;points=[];portConstraint=eastwest;strokeColor=inherit;" vertex="1" parent="0IUmfTfqXBqnDYrN5mXU-36">
          <mxGeometry y="120" width="350" height="8" as="geometry" />
        </mxCell>
        <mxCell id="0IUmfTfqXBqnDYrN5mXU-42" value="" style="endArrow=block;endFill=1;html=1;edgeStyle=orthogonalEdgeStyle;align=left;verticalAlign=top;rounded=0;exitX=0.003;exitY=0.328;exitDx=0;exitDy=0;exitPerimeter=0;" edge="1" parent="1" source="46iz_8Q2Tla9tHOPQVGm-30" target="46iz_8Q2Tla9tHOPQVGm-23">
          <mxGeometry x="-1" relative="1" as="geometry">
            <mxPoint x="3065" y="333" as="sourcePoint" />
            <mxPoint x="2995" y="323" as="targetPoint" />
            <Array as="points">
              <mxPoint x="2941" y="317" />
            </Array>
          </mxGeometry>
        </mxCell>
        <mxCell id="46iz_8Q2Tla9tHOPQVGm-23" value="Coordinates" style="swimlane;fontStyle=1;align=center;verticalAlign=top;childLayout=stackLayout;horizontal=1;startSize=26;horizontalStack=0;resizeParent=1;resizeParentMax=0;resizeLast=0;collapsible=1;marginBottom=0;whiteSpace=wrap;html=1;fillColor=#d5e8d4;strokeColor=#82b366;" parent="1" vertex="1">
          <mxGeometry x="2831" y="343" width="220" height="100" as="geometry" />
        </mxCell>
        <mxCell id="46iz_8Q2Tla9tHOPQVGm-24" value="- longitude: double&lt;br&gt;- latitude: double" style="text;strokeColor=none;fillColor=none;align=left;verticalAlign=top;spacingLeft=4;spacingRight=4;overflow=hidden;rotatable=0;points=[[0,0.5],[1,0.5]];portConstraint=eastwest;whiteSpace=wrap;html=1;" parent="46iz_8Q2Tla9tHOPQVGm-23" vertex="1">
          <mxGeometry y="26" width="220" height="34" as="geometry" />
        </mxCell>
        <mxCell id="46iz_8Q2Tla9tHOPQVGm-25" value="" style="line;strokeWidth=1;fillColor=none;align=left;verticalAlign=middle;spacingTop=-1;spacingLeft=3;spacingRight=3;rotatable=0;labelPosition=right;points=[];portConstraint=eastwest;strokeColor=inherit;" parent="46iz_8Q2Tla9tHOPQVGm-23" vertex="1">
          <mxGeometry y="60" width="220" height="8" as="geometry" />
        </mxCell>
        <mxCell id="yoNJW2muiEM-XHwD3TKA-2" value="+Distance(Coordinates point) : double" style="text;strokeColor=none;fillColor=none;align=left;verticalAlign=top;spacingLeft=4;spacingRight=4;overflow=hidden;rotatable=0;points=[[0,0.5],[1,0.5]];portConstraint=eastwest;whiteSpace=wrap;html=1;" parent="46iz_8Q2Tla9tHOPQVGm-23" vertex="1">
          <mxGeometry y="68" width="220" height="32" as="geometry" />
        </mxCell>
        <mxCell id="0IUmfTfqXBqnDYrN5mXU-43" style="edgeStyle=orthogonalEdgeStyle;rounded=0;orthogonalLoop=1;jettySize=auto;html=1;endArrow=blockThin;endFill=1;" edge="1" parent="1" source="gk7VsiWPiI99spmP87R4-23">
          <mxGeometry relative="1" as="geometry">
            <mxPoint x="3230" y="140" as="targetPoint" />
            <Array as="points">
              <mxPoint x="2820" y="60" />
              <mxPoint x="3230" y="60" />
            </Array>
          </mxGeometry>
        </mxCell>
        <mxCell id="0IUmfTfqXBqnDYrN5mXU-44" style="edgeStyle=orthogonalEdgeStyle;rounded=0;orthogonalLoop=1;jettySize=auto;html=1;entryX=0.25;entryY=0;entryDx=0;entryDy=0;" edge="1" parent="1" source="gk7VsiWPiI99spmP87R4-23" target="46iz_8Q2Tla9tHOPQVGm-29">
          <mxGeometry relative="1" as="geometry">
            <Array as="points">
              <mxPoint x="2800" y="80" />
              <mxPoint x="3105" y="80" />
            </Array>
          </mxGeometry>
        </mxCell>
        <mxCell id="0IUmfTfqXBqnDYrN5mXU-45" style="edgeStyle=orthogonalEdgeStyle;rounded=0;orthogonalLoop=1;jettySize=auto;html=1;entryX=0.25;entryY=0;entryDx=0;entryDy=0;" edge="1" parent="1" source="gk7VsiWPiI99spmP87R4-23" target="46iz_8Q2Tla9tHOPQVGm-23">
          <mxGeometry relative="1" as="geometry">
            <Array as="points">
              <mxPoint x="2780" y="100" />
              <mxPoint x="2886" y="100" />
            </Array>
          </mxGeometry>
        </mxCell>
      </root>
    </mxGraphModel>
  </diagram>
</mxfile>
